<svg viewBox="0 0 48 48" xml:space="preserve" xmlns="http://www.w3.org/2000/svg" enable-background="new 0 0 48 48"><path d="M24 14.25c-6.313 0-11.45 4.055-11.45 9.04 0 3.225 2.164 6.16 5.655 7.777l-1.763 2.109a.35.35 0 0 0 .393.551l4.385-1.668c.915.176 1.85.27 2.78.27 6.314 0 11.45-4.054 11.45-9.04S30.314 14.25 24 14.25zm2.545 15.04c.15-.028.298-.06.444-.095a.35.35 0 1 1 .164.68 9.524 9.524 0 0 1-.478.103.35.35 0 1 1-.13-.687zm3.264-.495a8.894 8.894 0 0 1-1.412.693.35.35 0 1 1-.253-.652 8.164 8.164 0 0 0 1.301-.639c1.865-1.133 2.934-2.83 2.934-4.655a.35.35 0 1 1 .7 0c0 2.076-1.192 3.99-3.27 5.253z" fill="#6c7ae0" class="fill-303030"></path></svg>